HIERARCHY
ROOT Hips
{
  OFFSET 5.72205e-005 65.662 3.42586
  CHANNELS 6 Xposition Yposition Zposition Zrotation Xrotation Yrotation
  JOINT Chest
  {
    OFFSET 0 8.7983 -4.7612
    CHANNELS 3 Zrotation Xrotation Yrotation
    JOINT Chest2
    {
      OFFSET 0 8.0291 0.4195
      CHANNELS 3 Zrotation Xrotation Yrotation
      JOINT Chest3
      {
        OFFSET 0 9.9351 -2.2114
        CHANNELS 3 Zrotation Xrotation Yrotation
        JOINT Neck
        {
          OFFSET 0 22.3885 -0.4656
          CHANNELS 3 Zrotation Xrotation Yrotation
          JOINT Head
          {
            OFFSET -0.0001 12.643 3.4389
            CHANNELS 3 Zrotation Xrotation Yrotation
            End Site
            {
              OFFSET 0.0001 17.6655 0.5274
            }
          }
        }
        JOINT LeftCollar
        {
          OFFSET 2.2603 21.606 7.4023
          CHANNELS 3 Zrotation Xrotation Yrotation
          JOINT LeftShoulder
          {
            OFFSET 13.5163 -1.1332 -5.0146
            CHANNELS 3 Zrotation Xrotation Yrotation
            JOINT LeftElbow
            {
              OFFSET -0.0995 -28.05 -0.2431
              CHANNELS 3 Zrotation Xrotation Yrotation
              JOINT LeftWrist
              {
                OFFSET 0.0679 -23.3996 -0.1402
                CHANNELS 3 Zrotation Xrotation Yrotation
                JOINT LeftFinger1
                {
                  OFFSET 0.7932 -9.069 2.5189
                  CHANNELS 3 Zrotation Xrotation Yrotation
                  JOINT LeftFinger11
                  {
                    OFFSET -0.8272 -3.3923 0.5977
                    CHANNELS 3 Zrotation Xrotation Yrotation
                    JOINT LeftFinger12
                    {
                      OFFSET -0.5649 -2.3158 0.4082
                      CHANNELS 3 Zrotation Xrotation Yrotation
                      End Site
                      {
                        OFFSET -0.4919 -1.6479 0.2673
                      }
                    }
                  }
                }
                JOINT LeftFinger2
                {
                  OFFSET 0.9159 -9.2044 0.2193
                  CHANNELS 3 Zrotation Xrotation Yrotation
                  JOINT LeftFinger21
                  {
                    OFFSET 0.0117 -4.1944 -0.0248
                    CHANNELS 3 Zrotation Xrotation Yrotation
                    JOINT LeftFinger22
                    {
                      OFFSET 0.0071 -2.3249 -0.0142
                      CHANNELS 3 Zrotation Xrotation Yrotation
                      End Site
                      {
                        OFFSET -0.1475 -2.0882 0.0028
                      }
                    }
                  }
                }
                JOINT LeftFinger3
                {
                  OFFSET 0.6113 -8.7231 -2.0637
                  CHANNELS 3 Zrotation Xrotation Yrotation
                  JOINT LeftFinger31
                  {
                    OFFSET -0.1927 -3.8059 -0.2383
                    CHANNELS 3 Zrotation Xrotation Yrotation
                    JOINT LeftFinger32
                    {
                      OFFSET -0.1091 -2.1688 -0.1362
                      CHANNELS 3 Zrotation Xrotation Yrotation
                      End Site
                      {
                        OFFSET -0.2358 -1.9176 -0.0906
                      }
                    }
                  }
                }
                JOINT LeftFinger4
                {
                  OFFSET -0.6151 -8.0947 -3.5641
                  CHANNELS 3 Zrotation Xrotation Yrotation
                  JOINT LeftFinger41
                  {
                    OFFSET -0.4882 -2.341 -0.6462
                    CHANNELS 3 Zrotation Xrotation Yrotation
                    JOINT LeftFinger42
                    {
                      OFFSET -0.3575 -1.7167 -0.4742
                      CHANNELS 3 Zrotation Xrotation Yrotation
                      End Site
                      {
                        OFFSET -0.4187 -1.5237 -0.3496
                      }
                    }
                  }
                }
                JOINT LeftFinger0
                {
                  OFFSET -1.42 -1.8761 1.4223
                  CHANNELS 3 Zrotation Xrotation Yrotation
                  JOINT LeftFinger01
                  {
                    OFFSET -1.1471 -3.4929 2.6334
                    CHANNELS 3 Zrotation Xrotation Yrotation
                    JOINT LeftFinger02
                    {
                      OFFSET -0.823 -2.3 1.6571
                      CHANNELS 3 Zrotation Xrotation Yrotation
                      End Site
                      {
                        OFFSET -0.5822 -1.6914 1.1582
                      }
                    }
                  }
                }
              }
            }
          }
        }
        JOINT RightCollar
        {
          OFFSET -2.2603 21.606 7.4023
          CHANNELS 3 Zrotation Xrotation Yrotation
          JOINT RightShoulder
          {
            OFFSET -13.5187 -1.1334 -5.0155
            CHANNELS 3 Zrotation Xrotation Yrotation
            JOINT RightElbow
            {
              OFFSET 0.0994 -28.0499 -0.2431
              CHANNELS 3 Zrotation Xrotation Yrotation
              JOINT RightWrist
              {
                OFFSET -0.0679 -23.3996 -0.1402
                CHANNELS 3 Zrotation Xrotation Yrotation
                JOINT RightFinger1
                {
                  OFFSET -0.7932 -9.0691 2.5189
                  CHANNELS 3 Zrotation Xrotation Yrotation
                  JOINT RightFinger11
                  {
                    OFFSET 0.8272 -3.3923 0.5977
                    CHANNELS 3 Zrotation Xrotation Yrotation
                    JOINT RightFinger12
                    {
                      OFFSET 0.565 -2.3158 0.4082
                      CHANNELS 3 Zrotation Xrotation Yrotation
                      End Site
                      {
                        OFFSET 0.4919 -1.6479 0.2673
                      }
                    }
                  }
                }
                JOINT RightFinger2
                {
                  OFFSET -0.916 -9.2044 0.2193
                  CHANNELS 3 Zrotation Xrotation Yrotation
                  JOINT RightFinger21
                  {
                    OFFSET -0.0117 -4.1944 -0.0248
                    CHANNELS 3 Zrotation Xrotation Yrotation
                    JOINT RightFinger22
                    {
                      OFFSET -0.0071 -2.3249 -0.0142
                      CHANNELS 3 Zrotation Xrotation Yrotation
                      End Site
                      {
                        OFFSET 0.1475 -2.0882 0.0028
                      }
                    }
                  }
                }
                JOINT RightFinger3
                {
                  OFFSET -0.6113 -8.7231 -2.0637
                  CHANNELS 3 Zrotation Xrotation Yrotation
                  JOINT RightFinger31
                  {
                    OFFSET 0.1927 -3.8059 -0.2383
                    CHANNELS 3 Zrotation Xrotation Yrotation
                    JOINT RightFinger32
                    {
                      OFFSET 0.1091 -2.1688 -0.1362
                      CHANNELS 3 Zrotation Xrotation Yrotation
                      End Site
                      {
                        OFFSET 0.2358 -1.9176 -0.0906
                      }
                    }
                  }
                }
                JOINT RightFinger4
                {
                  OFFSET 0.6151 -8.0947 -3.564
                  CHANNELS 3 Zrotation Xrotation Yrotation
                  JOINT RightFinger41
                  {
                    OFFSET 0.4882 -2.341 -0.6462
                    CHANNELS 3 Zrotation Xrotation Yrotation
                    JOINT RightFinger42
                    {
                      OFFSET 0.3574 -1.7166 -0.4742
                      CHANNELS 3 Zrotation Xrotation Yrotation
                      End Site
                      {
                        OFFSET 0.4187 -1.5237 -0.3496
                      }
                    }
                  }
                }
                JOINT RightFinger0
                {
                  OFFSET 1.4199 -1.8761 1.4221
                  CHANNELS 3 Zrotation Xrotation Yrotation
                  JOINT RightFinger01
                  {
                    OFFSET 1.1472 -3.4929 2.6336
                    CHANNELS 3 Zrotation Xrotation Yrotation
                    JOINT RightFinger02
                    {
                      OFFSET 0.8229 -2.3 1.6571
                      CHANNELS 3 Zrotation Xrotation Yrotation
                      End Site
                      {
                        OFFSET 0.5822 -1.6914 1.1582
                      }
                    }
                  }
                }
              }
            }
          }
        }
      }
    }
  }
  JOINT RightHip
  {
    OFFSET -9.412 3.9771 -0.7758
    CHANNELS 3 Zrotation Xrotation Yrotation
    JOINT RightKnee
    {
      OFFSET -0.7531 -40.938 0
      CHANNELS 3 Zrotation Xrotation Yrotation
      JOINT RightAnkle
      {
        OFFSET 0 -40.1986 0
        CHANNELS 3 Zrotation Xrotation Yrotation
        JOINT RightToe
        {
          OFFSET 0 -4.4182 9.239
          CHANNELS 3 Zrotation Xrotation Yrotation
          End Site
          {
            OFFSET 0 0 6.1981
          }
        }
      }
    }
  }
  JOINT LeftHip
  {
    OFFSET 9.4119 3.9773 -0.7758
    CHANNELS 3 Zrotation Xrotation Yrotation
    JOINT LeftKnee
    {
      OFFSET 0.7532 -40.9383 0
      CHANNELS 3 Zrotation Xrotation Yrotation
      JOINT LeftAnkle
      {
        OFFSET 0 -40.1986 0
        CHANNELS 3 Zrotation Xrotation Yrotation
        JOINT LeftToe
        {
          OFFSET 0 -4.4182 9.239
          CHANNELS 3 Zrotation Xrotation Yrotation
          End Site
          {
            OFFSET 0 0 6.1981
          }
        }
      }
    }
  }
}
MOTION
Frames:	6
Frame Time:	0.0333333
5.72205e-005 65.662 3.42586 0 0 -0 0 0 -0 0 0 -0 0 0 -0 0 0 -0 0 0 -0 0 0 -12.5014 88.1196 14.2451 10.6914 -0.00160068 -0.00239207 0.000740045 -8.4365e-005 7.00714e-005 -9.52055e-007 9.93923e-017 -1.98785e-016 -1.59028e-015 9.93923e-017 -5.96354e-016 -1.59028e-015 -9.93923e-017 -5.96354e-016 -1.59028e-015 9.93923e-017 -1.98785e-016 -1.59028e-015 -0.0128176 0.00232552 8.52707e-005 9.93923e-017 5.96354e-016 -0 9.93923e-017 -1.98785e-016 -1.59028e-015 -0.0160551 0.00299681 0.000857156 -2.48481e-016 0 3.18055e-015 9.93923e-017 -1.98785e-016 -1.59028e-015 -0.0125865 0.0031206 0.00282719 0 1.98785e-016 -0 9.93923e-017 -1.98785e-016 -1.59028e-015 9.93923e-017 -5.96354e-016 -1.59028e-015 -9.93923e-017 -5.96354e-016 -1.59028e-015 -0.865644 0.16582 7.03859 -88.0329 10.2057 -10.5567 0.0015593 -0.00248883 -0.000788628 7.87605e-005 4.10553e-005 1.24965e-005 -3.97569e-016 -7.95139e-016 3.18055e-015 -1.98785e-016 -3.97569e-016 3.18055e-015 -1.98785e-016 0 3.18055e-015 -3.97569e-016 -7.95139e-016 3.18055e-015 0.0129473 0.00231697 -8.70038e-005 9.93923e-017 -7.95139e-016 1.59028e-015 -3.97569e-016 -7.95139e-016 3.18055e-015 0.0163314 0.00303369 -0.000872333 3.97569e-016 7.95139e-016 -3.18055e-015 -3.97569e-016 -7.95139e-016 3.18055e-015 0.0145763 0.00367772 -0.00326275 9.93923e-017 -3.97569e-016 -0 -3.97569e-016 -7.95139e-016 3.18055e-015 -1.98785e-016 -3.97569e-016 3.18055e-015 -1.98785e-016 0 3.18055e-015 3.42482 1.32465 -0.0626183 0.000117508 0.717283 0.000978199 -3.4257 -2.04197 -0.0604716 6.47761e-025 0 -0 -3.42483 1.34017 0.0627307 -0.000193936 0.682302 -0.0013703 3.42574 -2.02253 0.0595886 -8.45714e-024 0 -7.40531e-025 
-40.2357 1.38441 30.5198 -105.104 6.9388 -101.105 0.791589 12.2588 -0.696229 1.80415 24.5053 -1.62856 1.80413 24.5053 -1.62857 2.03496 10.9904 -0.390767 2.13152 -20.3212 -1.26146 -50.6488 17.5382 -29.9318 178.139 3.44079 134.51 -122.766 -36.825 -71.854 -15.5961 0.81085 8.55469 -3.18055e-015 3.18055e-015 -7.95139e-016 -6.36111e-015 6.36111e-015 -7.95139e-016 -3.18055e-015 4.77083e-015 7.95139e-016 -3.18055e-015 3.18055e-015 -7.95139e-016 -0.0128222 0.00231956 8.53107e-005 -3.18055e-015 -1.59028e-015 7.95139e-016 -3.18055e-015 3.18055e-015 -7.95139e-016 -0.0160464 0.00299738 0.000852055 6.36111e-015 1.59028e-015 -7.95139e-016 -3.18055e-015 3.18055e-015 -7.95139e-016 -0.012589 0.00311192 0.00282891 -3.18055e-015 4.77083e-015 -2.38542e-015 -3.18055e-015 3.18055e-015 -7.95139e-016 -6.36111e-015 6.36111e-015 -7.95139e-016 -3.18055e-015 4.77083e-015 7.95139e-016 -7.51303 6.98865 4.36436 -20.6896 -13.4922 17.8626 -128.554 -79.3874 177.61 27.9347 -13.1217 1.00384 3.18055e-015 -4.77083e-015 3.18055e-015 1.76556e-031 3.18055e-015 -3.18055e-015 3.18055e-015 6.36111e-015 3.18055e-015 3.18055e-015 -4.77083e-015 3.18055e-015 0.0129724 0.00232129 -8.62819e-005 1.59028e-015 0 3.18055e-015 3.18055e-015 -4.77083e-015 3.18055e-015 0.0163177 0.0030319 -0.000882127 1.05934e-030 -6.36111e-015 9.54166e-015 3.18055e-015 -4.77083e-015 3.18055e-015 0.0145712 0.0036761 -0.00325411 -6.36111e-015 -6.36111e-015 6.36111e-015 3.18055e-015 -4.77083e-015 3.18055e-015 1.76556e-031 3.18055e-015 -3.18055e-015 3.18055e-015 6.36111e-015 3.18055e-015 0.2099 2.92506 25.473 0.336002 45.3741 -0.565682 22.5138 24.4291 2.99869 -2.79671e-006 -4.0062e-005 -1.73931e-005 24.2692 -11.6071 -7.8299 179.036 79.686 -177.612 -25.7982 17.9287 0.86834 -1.59028e-015 1.19271e-015 6.36111e-015 
-40.2357 1.38425 30.5198 -105.104 6.9388 -101.105 0.791589 12.2588 -0.696229 1.80415 24.5053 -1.62856 1.80413 24.5053 -1.62857 2.03496 10.9904 -0.390767 1.82606 -20.4617 -1.64699 -50.6488 17.5382 -29.9318 178.139 3.44079 134.51 -122.766 -36.825 -71.854 -15.5961 0.81085 8.55469 -3.18055e-015 3.18055e-015 -7.95139e-016 -6.36111e-015 6.36111e-015 -7.95139e-016 -3.18055e-015 4.77083e-015 7.95139e-016 -3.18055e-015 3.18055e-015 -7.95139e-016 -0.0128222 0.00231956 8.53107e-005 -3.18055e-015 -1.59028e-015 7.95139e-016 -3.18055e-015 3.18055e-015 -7.95139e-016 -0.0160464 0.00299738 0.000852055 6.36111e-015 1.59028e-015 -7.95139e-016 -3.18055e-015 3.18055e-015 -7.95139e-016 -0.012589 0.00311192 0.00282891 -3.18055e-015 4.77083e-015 -2.38542e-015 -3.18055e-015 3.18055e-015 -7.95139e-016 -6.36111e-015 6.36111e-015 -7.95139e-016 -3.18055e-015 4.77083e-015 7.95139e-016 -7.51303 6.98865 4.36436 -20.6895 -13.4922 17.8625 -133.394 -79.0618 173.469 26.0281 -13.4771 1.06523 4.00701e-007 -1.39244e-006 1.37705e-007 -1.59028e-015 4.77083e-015 -0 -3.18055e-015 6.36111e-015 -0 4.00701e-007 -1.39244e-006 1.37705e-007 0.0129574 0.00231588 -7.93169e-005 -0 -2.05406e-006 -0 4.00701e-007 -1.39244e-006 1.37705e-007 0.0163382 0.00303196 -0.000874733 -1.09284e-006 8.622e-007 2.32871e-006 4.00701e-007 -1.39244e-006 1.37705e-007 0.0146204 0.0036863 -0.00326535 2.34995e-024 4.23329e-008 -3.18055e-015 4.00701e-007 -1.39244e-006 1.37705e-007 -1.59028e-015 4.77083e-015 -0 -3.18055e-015 6.36111e-015 -0 0.209897 2.92422 25.473 0.336362 45.3747 -0.565728 22.5138 24.4292 2.99865 9.37928e-006 -8.75903e-006 -8.54762e-007 24.3498 -11.6141 -7.73912 179.037 79.6869 -177.612 -25.7986 17.9308 0.869014 -3.18055e-015 -3.97569e-016 -0 
-40.2356 1.38409 30.5199 -105.104 6.93878 -101.105 0.791612 12.2587 -0.696214 1.80416 24.5053 -1.62858 1.80414 24.5053 -1.62858 2.03495 10.9904 -0.390773 1.5189 -20.6004 -2.03416 -50.6488 17.5382 -29.9318 178.139 3.44078 134.51 -122.766 -36.825 -71.854 -15.5961 0.810839 8.5547 8.28631e-007 9.67164e-007 3.28945e-006 4.73216e-006 1.35718e-005 -3.3554e-007 2.43984e-006 -1.61709e-006 -3.24952e-006 8.28631e-007 9.67164e-007 3.28945e-006 -0.0128197 0.00235079 8.55585e-005 -2.15695e-006 -2.27326e-005 -3.31513e-007 8.28631e-007 9.67164e-007 3.28945e-006 -0.0160519 0.00299778 0.000856535 7.34055e-006 -2.15941e-006 -3.18913e-006 8.28631e-007 9.67164e-007 3.28945e-006 -0.0125746 0.00314203 0.00281955 -2.15704e-006 -2.23801e-005 -3.32601e-007 8.28631e-007 9.67164e-007 3.28945e-006 4.73216e-006 1.35718e-005 -3.3554e-007 2.43984e-006 -1.61709e-006 -3.24952e-006 -7.51304 6.98867 4.36436 -20.6895 -13.4922 17.8625 -137.965 -78.6728 169.6 24.1028 -13.8375 1.11465 -8.66401e-007 -5.4683e-006 2.15063e-006 -1.37163e-006 -8.2918e-006 4.00717e-006 -1.44915e-006 -2.96827e-006 2.16299e-006 -8.66401e-007 -5.4683e-006 2.15063e-006 0.0129622 0.00230384 -8.29423e-005 -2.433e-007 2.19211e-006 2.56703e-006 -8.66401e-007 -5.4683e-006 2.15063e-006 0.0163209 0.0030398 -0.000873389 -2.09552e-006 -3.46554e-007 4.5953e-006 -8.66401e-007 -5.4683e-006 2.15063e-006 0.0145827 0.00368255 -0.00324655 -7.32033e-006 5.47414e-006 -4.26803e-006 -8.66401e-007 -5.4683e-006 2.15063e-006 -1.37163e-006 -8.2918e-006 4.00717e-006 -1.44915e-006 -2.96827e-006 2.16299e-006 0.209888 2.9221 25.4731 0.337234 45.3765 -0.565772 22.5139 24.4293 2.99862 3.5122e-006 1.10315e-005 3.97827e-006 24.4304 -11.6212 -7.6483 179.036 79.6877 -177.612 -25.7991 17.9329 0.869663 -1.69074e-006 1.46664e-006 6.64325e-006 
-40.2356 1.38393 30.52 -105.104 6.93879 -101.105 0.791584 12.2587 -0.696203 1.80414 24.5054 -1.62857 1.80414 24.5053 -1.62857 2.03495 10.9904 -0.390778 1.21 -20.7374 -2.42306 -50.6488 17.5382 -29.9318 178.139 3.44077 134.51 -122.766 -36.825 -71.8541 -15.5961 0.810841 8.55473 -3.18055e-015 -4.77083e-015 2.38542e-015 1.61015e-006 -7.69413e-006 1.33226e-006 1.15366e-006 7.35855e-006 4.95518e-006 -3.18055e-015 -4.77083e-015 2.38542e-015 -0.0128324 0.00233345 9.40591e-005 -3.18055e-015 -1.59028e-015 7.95139e-016 -3.18055e-015 -4.77083e-015 2.38542e-015 -0.0160498 0.00299765 0.000857302 3.18055e-015 1.59028e-015 7.95139e-016 -3.18055e-015 -4.77083e-015 2.38542e-015 -0.012606 0.00310942 0.00283019 8.82781e-032 3.18055e-015 -1.59028e-015 -3.18055e-015 -4.77083e-015 2.38542e-015 1.61015e-006 -7.69413e-006 1.33226e-006 1.15366e-006 7.35855e-006 4.95518e-006 -7.51303 6.98863 4.36435 -20.6895 -13.4922 17.8625 -142.247 -78.2262 166.021 22.1597 -14.2022 1.15197 -4.98384e-024 -4.48905e-008 -6.36111e-015 2.21079e-006 -3.92154e-006 -1.87142e-006 8.07261e-007 -8.46811e-007 2.63058e-007 -4.98384e-024 -4.48905e-008 -6.36111e-015 0.0129352 0.00231294 -8.58992e-005 1.88984e-006 4.68432e-006 -4.46268e-006 -4.98384e-024 -4.48905e-008 -6.36111e-015 0.0163349 0.00302973 -0.000875056 -1.59028e-015 -3.18055e-015 9.54166e-015 -4.98384e-024 -4.48905e-008 -6.36111e-015 0.0145749 0.00367858 -0.00324691 -3.18055e-015 1.59028e-015 3.18055e-015 -4.98384e-024 -4.48905e-008 -6.36111e-015 2.21079e-006 -3.92154e-006 -1.87142e-006 8.07261e-007 -8.46811e-007 2.63058e-007 0.209887 2.92342 25.4731 0.336546 45.3751 -0.56568 22.514 24.4295 2.99857 2.29532e-006 -4.66862e-006 7.24796e-006 24.5111 -11.628 -7.55742 179.036 79.6887 -177.612 -25.7996 17.935 0.870327 -1.66211e-006 2.46142e-007 9.40604e-008 
-40.2356 1.38376 30.52 -105.104 6.93879 -101.105 0.791584 12.2587 -0.696203 1.80414 24.5054 -1.62857 1.80414 24.5053 -1.62857 2.03495 10.9904 -0.39078 0.89943 -20.8726 -2.81362 -50.6488 17.5382 -29.9318 178.139 3.4408 134.51 -122.766 -36.8249 -71.8539 -15.5961 0.810855 8.55467 -2.20695e-032 -1.59028e-015 -7.95139e-016 -9.54166e-015 -3.18055e-015 7.95139e-016 -3.18055e-015 -3.18055e-015 -1.59028e-015 -2.20695e-032 -1.59028e-015 -7.95139e-016 -0.0128328 0.00232349 7.752e-005 3.18055e-015 4.77083e-015 -7.95139e-016 -2.20695e-032 -1.59028e-015 -7.95139e-016 -0.0160581 0.00298688 0.000855925 0 0 -0 -2.20695e-032 -1.59028e-015 -7.95139e-016 -0.0125894 0.0031033 0.00282199 -6.36111e-015 0 7.95139e-016 -2.20695e-032 -1.59028e-015 -7.95139e-016 -9.54166e-015 -3.18055e-015 7.95139e-016 -3.18055e-015 -3.18055e-015 -1.59028e-015 -7.51303 6.98863 4.36435 -20.6896 -13.4922 17.8625 -146.237 -77.7279 162.737 20.1994 -14.5705 1.17657 -1.35595e-006 1.25773e-007 2.10552e-006 -4.05088e-007 -1.75956e-006 -1.28246e-007 3.18055e-015 1.59028e-015 -3.18055e-015 -1.35595e-006 1.25773e-007 2.10552e-006 0.0129525 0.00232227 -7.46321e-005 -3.07999e-006 2.4765e-006 -1.61572e-005 -1.35595e-006 1.25773e-007 2.10552e-006 0.0163304 0.00303368 -0.000879823 6.07455e-006 -6.44002e-007 -8.20015e-006 -1.35595e-006 1.25773e-007 2.10552e-006 0.0146216 0.00369116 -0.00327482 -6.68656e-007 -4.6133e-006 -2.74694e-006 -1.35595e-006 1.25773e-007 2.10552e-006 -4.05088e-007 -1.75956e-006 -1.28246e-007 3.18055e-015 1.59028e-015 -3.18055e-015 0.209873 2.9193 25.4732 0.338361 45.3787 -0.565821 22.5141 24.4296 2.99853 1.19967e-005 1.58276e-005 1.82192e-005 24.5918 -11.6348 -7.46653 179.036 79.6895 -177.611 -25.8 17.9371 0.871028 2.49209e-006 3.31987e-006 -1.41643e-007 
